<svg xmlns="http://www.w3.org/2000/svg" height="16" width="16" viewBox="0 0 512 512"><!--!Font Awesome Free 6.5.1 by @fontawesome - https://fontawesome.com License - https://fontawesome.com/license/free Copyright 2023 Fonticons, Inc.--><path opacity="1" fill="#ffffff" d="M256 8C119 8 8 119 8 256S119 504 256 504 504 393 504 256 393 8 256 8zm92.5 313h0l-20 25a16 16 0 0 1 -22.5 2.5h0l-67-49.7a40 40 0 0 1 -15-31.2V112a16 16 0 0 1 16-16h32a16 16 0 0 1 16 16V256l58 42.5A16 16 0 0 1 348.5 321z"/></svg>